<mxfile host="app.diagrams.net" modified="2024-02-12T14:27:02.196Z" agent="Mozilla/5.0 (Macintosh; Intel Mac OS X 10_15_7) AppleWebKit/537.36 (KHTML, like Gecko) Chrome/121.0.0.0 Safari/537.36" etag="2dbiwxqt0BK4YzDXbblT" version="23.1.1" type="github">
  <diagram name="페이지-1" id="VNucgZ7IqThqG8bAVZX_">
    <mxGraphModel dx="1434" dy="711" grid="1" gridSize="10" guides="1" tooltips="1" connect="1" arrows="1" fold="1" page="1" pageScale="1" pageWidth="3300" pageHeight="4681" math="0" shadow="0">
      <root>
        <mxCell id="0" />
        <mxCell id="1" parent="0" />
        <mxCell id="WVMQcrjgZbMAPQonK8WB-1" value="RDS" style="shape=image;verticalLabelPosition=bottom;labelBackgroundColor=default;verticalAlign=top;aspect=fixed;imageAspect=0;image=data:image/png,iVBORw0KGgoAAAANSUhEUgAAAHoAAAB4CAYAAAA9kebvAAAAAXNSR0IArs4c6QAAAIRlWElmTU0AKgAAAAgABQESAAMAAAABAAEAAAEaAAUAAAABAAAASgEbAAUAAAABAAAAUgEoAAMAAAABAAIAAIdpAAQAAAABAAAAWgAAAAAAAACQAAAAAQAAAJAAAAABAAOgAQADAAAAAQABAACgAgAEAAAAAQAAAHqgAwAEAAAAAQAAAHgAAAAAzuYkvAAAAAlwSFlzAAAWJQAAFiUBSVIk8AAAO11JREFUeAHlfQm0ZlV55amixlfzwAwFyKAioghoQIIGUVAIIGBUBCPgFJPYGVZWr3SvZJmkk7XSJukkvZJIVFRQMQ6IWBgFNSqiqHFAURGVeaaogRpezdV772845/zvf6/qFURd7a337v3uN+xvn+/ce+6957//qykFywvP+8EObsuUKbZpZFOYvmAzxVZSc8/sQ/RukiVkx28xezxYkoOSOX4AmD33Ak8KITmlJtb5Wkzobc/oTyau5VdlkQzegg5839IBomfKNo4f5wFtXEIJyEK9bdppZXCp7lPK1X82ZcpUc/L1DutvrV2WJWQYduAff/RrK8mptwC3c0cWaUvgSK0sZjWx8+nwBuLSPfRSeB6Xg5qT810Ywy4OtqqqsLsxd1NAvLwdxmQRD71Urg9+CTdMbzpzDbsHtHFuivaYKZXYhRy7AAsx+FpHd4TMReshesNzGHNiTs8DhZt2lthizLnrVGFVfVJIgbnGNsTy/hJ2Nuuys5qjZPWMHiik6t0UnWIcHT/Lzh48YMTDudT2uaTNL2Fn155mJ9WOb04IdfSYgnkhtWlkij+PzmbX5XGYgnFJ7tHYJ7uzHa/WD4pI6lzMJZS1RmZ2fcebEMP0ppNr+EsVvh7nuyISJvoP0UfhcuiuPikh0GStI/HPqbPVxKA2wMX4iRhX3uAn6cxu8FhIo5DCTmtkVC0q6hkcJ+xs5Y24JCECinOTKxyy4VXJytYN3TU2pZ02xPAafy9F6tMEIWS0PvsqBfBxuW9I1beNCl9roZeM+IGnXI3eCMk9cIwO1u5rWFwPxHnU8Di6J1LKCgl9h2++Zs9Mw+PCidsOw+MSCoLLfe2qvna0wLyBLnOjJQhzJwrZysJzUCXUSsnHS+xUBT8Ms4+reTv9ABfPWjk6l0oJUnVyfmqI693oAb5h8p3EtfyqTORom1ENfN/KTuhhetP1cR7QxiUUhIAJgX4u59AtnfSZNknK5kUV1kCBzd4SFpDUzNN1jinctrNclbzlsJYwKimkAA/I5mGyxXDtehlbTJMtJvS2Z0CTias5hTDASyzMQFFcTaCcDAf0xsWgTA5eio04NzmQmRiU+gnuutNnGGFCDdH3hOWkpKmvoJUEcKo6pcSXtVHXvFCGfoBLqNNXisl0miNMOq7WxUIdR6Uw2ai6vuPN5gzTD4vbtdomHtz9jGYgli5x4zagl+sQf6rINSPFMci73nfdUSHMW9UpwcVkWRt1q09qKZBDgxfIine9y2EKLpHN9J5wvLgGo4+z/GyYuZiV+8k7Yhud2Rnj/gPtSdfQdxgel6kgJIwJ6uiukAHkyDU2pUo4s4tm6pmkEpaTOYQ+oaRwW0ZUHIWac8ex0StT4A3jLps7uFxVkNwkIXdDcKM2zs9lkQ4ZW4nW8GyPaHZcseMcbWNRoVOgsIbpM0NiWNLwJQcFC0aM3ERF3ox1TsMKRu8BvVTj6C1nk8lYef5xCAE/U6RQ83Ycu7wN3kCcGHAVelekfkhxZEu97Rl9MVAbfEUWWOBjPymbOpFgdxy5u14b13d2wg3Te5yBa21u4etxvtuQ6ofuBG/IGGZj6Qg1iYforfHwoZtczb/TWwK3K7G5SnT/RhaTRh0F7PQDXNI99FJ4m1xukjb1gTHsRg3rycTRXQAOYzKhUt/ht/bMlL7jxwlQZibqamGZ44yW1XGqHGQiQdKIggnftFoP0Wdi+eaKbMYSigTACXGQgyEomKItWUzERWAKcBmGJ7/JdJoDTzrO8pOohTqOFCYbVdd3vL1GjS/FaGQfJ4PMY2vbDN2iEblqmRNUCMMKJnwn3Mjhb9uWsJykHksIOM5haOcoNHI1vo2+bUcURMmGcRfUL0dn93fdVnmvS1PI7ijb2dmG8AF/A/zZdTYZJoUUjJcdJmTk0pPd2Y5XSwmFpwpS5hJK4yVGZqA4UMO2duPERTs7jBo39q67MoSEqMANICcR6iBv6h1lO/y2wbh9O2VsW3k7910/IG+Dfgd0tiAIP1qod7HNFXLHkX7wtwWWFEMwu/bqynN5ntBnCAT7YXD6Kod8BuJooBuSb1cbvc0he10mrBF8DFprpbLUvp8NYy7Tdf62k3EUpmkPhh1TdpQpO+LtBSn0VgRTpp6g8VYH5B3xJgNlvNPwm69YWi46f2mZNi3fb7Bku7i+4upV5YqPrlReq5bzcXylHuBAPh1H5kqf2o6qM7u4w6w8BKaMGrAd2EhGAzsuthuYchoeB4wLz5hdLnjpbCaY9LJ1647yb5/dVD50w1ZwQR41HDBKLYaQW73JWCOzraM93oC4GXMQIQUvBDAGC5ufCxPEAjn2eAQ/kU4WpPCAGKAUGrmKKcFuspg06qF69625vCGhV7y3yeU2f6UDY9gJMSQuID3DpDY8UV556kyMcALONgpEqYfpTWd5w84Ik/05uhr6gkEfJiK4HEW0xLUwu3smCydWStPkYtImb4iDHBjec6fCvKnPwqdg9jF4UtQ2KXl1anahdF/mDjlUcRLKthurWktP3vFmumF605lr2C15Dt0+XllDJhrGMThoIVq0BrLDjmnSBz6+AsPxY2XTJnrEUEg3kw3CMClP4Qqu411K2GPtJaPlQJlM8lLDNMlToEpbdWYfgyeqQtrtYfz9yzeUK/Eb7SQVytZek1mCWTNKedXps8tv4AweXEjD6ItQ7JibmjPBMA77FLsGyT9nxqynCIiFILay/UbmEM1dLZRjacRQcfualy8tb3ntXmX+vD3KVCSeisbZr8nYFSHqKCe40mglrZMyGXkzXcfBtD13QlZ9uqdg9sQLZCk8j8thCi6BanpHCF/AsrhqcyNbe00/f2RKufSc4Z2MkMq7wYy2mJ1MIq9vx4mzjo5Gd4AOkvEQXO4KGbHKXFcfuHpF7pzxooXl0lctLTNnIl3rH7KgExxxVe5yUe8m4oQ4DLOPI2R4w5JiCGbXXl15Ls8T+gyBYD/GN+zYM2IDcY2e9pkzppSLzpxVTjuhnskfxg3YmMXJ2kZJmrZYLs80oDffaKs62lWWQzsBSM6QfVdCmhq90NJJOFd85NHyiU+vLLyD5PXm7NMWldeev2TXOlsImWhcDursSBstYqzLPfeqb9sRvpay6ZzAE36jH1IPo4C1+xoW1wNxMthw/erTZ5YzTppZpu1RytZtpVz3Zdxlf3rUPQY20Z4O37LKU6l9P3jT0Mh2RqcunOXFlddESLbfNNSbYXoPdacyunF7efdVj5brPrsqVOXV5ywpb75ozzJ3LlrXkEhZaTyX8By01QvNfVx2r6GY4pgOCIiiNe0IncE1rQqOih/otMSEYD8E14+vUparr+bNnlIuwXB9/qn10eszX92E6/nGsnGzGNRV5KcmeFew1ClAqWUc0JuuG7oNK5yFLgzjLyTbzwYRs9W72TePr91W3nHFI+Uq3JDF8os0jLPrspYpgClkr0ItmhRPrLNnTcdw/euzy2kn1uH6o58dLZdfM1rWbcCMSiaNahmX3HOOtnHnjjchhugBkGd0tLgHYYoIdJAkAyFNFNLAIN/dUUY3bS9XfGTF7g/jgs1EyAI5UzUyiFd1SvA1uY8jv/DBNsUQzJ574SuF53E5YynYjzU+7NijXnfXL5tdzvjVWRiup2C43lGuu3FjuerfcSbjiUTuvmYIF+oMxqymdE8zSFXbYgGB1uprRzMkikKQgcbRzKx9waQwkxJL9JUrgPOEhnGiCSrwxudAzkkj+CvetD134lZ9uqdg9sQLZCk8j8thElHoLMYF4M3D3fUlLx8pr3hxM1x/BcP1J0fVyRFHqt2S/KAd4EU/U1m23k7EXt8N3UoyDFwxEeggvsu9wFT80NWO8os+jKtV0aaBokpdV97eXevsWby7PmuknP78WVmZj9yA4frqDWUth2sujt2mNQNtRspcTJYt9B7b6kxWiyRyVc/oNkuARAS3HaCDZF4IbXz4d7onYRgf4NOfoeQgB3HJ1CmwDebQx1W9ABoMRzM87tAWePKbuLP5CPVqDNdnnjw7h+vlXxotV31qQxndDADHyDzZANfIXnOaeygbfYsT/AgBvTO0jo6dbIScDNDiHLwDdBA3MaRfIqZxANgTGsYJJbjAHuQAvZvcYpS6xpvDeJ3d6QfiKrRL2nj1XFZ+yPPmYDLk3DnlFafNybJ8+qaN5cprN+RwHSEirZ10dQHK0DsXiwkl3EJvBovreJvKh+6mLJ2TAZrKwTtAj3OTs9NGMaFvMcH8F30YZ9cl5RTQLMjRpHTweviGTrjxmlJee9accvpJ9Zr8kc+sL5d/bH1Zu35guGa1IjjBqYwFytA7F3MPJfxCbwYLbHlD0wzdxPPg1mkoCLHC1+PaGEtV8eTeEIPl/9e78Zl4hHr1mXPKmS8YqcP1FzeUD2K43rjZO7mpXVa97aSoH3RWtRSgSE3Kcg+9zOYTvrTbhxoOTFR9mMBZZwbGDLzL2tDJP3hoPwih6r0fejjD4nNRPmfr+/ec5B3AjGGc6c8+fbFYcFJl9qyp5R1XPlI28zo2wKHniJCYuA/uA58hawIdecd8cMFszocH+LAPQnTgA08UBrgnHgmpXqXMwAcUl543r/z6r40QXcunvzxarrh2vQ3XqIHqIo41jm3wKpUP/vto0Erf/nNwwCZvNn9sjUwV+NxGR3fOwEFidU6nN0CFh952AMNeLOXyDz5kcWyQOtZMXSEjVhF1GN8wur28Gh+AcFm5emvZvEVlHtqQnXU2GiActISNMXrIq1aJl4innmSj1IoMH2/EDmCM29lNDbaA88o1mM/05cMYrq9ajk7WAQslcIxO8HIeDcYH+ImXk9DG29DHEQtB4o1NW9PQy+z4cK9ndOdMTjvpbBIgI22qPN7HixN1dgzjPJNZKE6wqLATNMTabxx5dzsLsbNmTC0jI1PLfnvPKPvvPb3svXRaWbRgD31yRj39OFnBZRsmLDahA3iArVm3vaxC3kce21YefGRruR+/o6M71EHsJPq1B4yRAwhqpjObzQchsvng8nXqJ+b94CfXlU3ofO85+RCn77RauzyzpdpZHOHgM0GNzEwcZ/D8l3yNEVJkI9yqM1uy2xtZnZFxHtDGZQiEhE+lSNLdFnTWzCk4k1myZrEkFu4yGzADn4Q99dBZ5WlPmVUOOWhmOXDf6WWfvaaXpYvqsdugTFp8bDU6/VF0+kNbyx33bS6337ml/PiuLRppRMO5CBhytooydqbjWs22SB+r6iSD7WIddoK5XFVhd2PupoAYeXuoycGL2+X/Z/4UVaX2PJz8KJEjCjrhmc3Do7lG8ogU04izQxc6KcwEfJWFfNpc8OGkftJ08uEjZPjzzH3xyfPLWS9eWJYunl7mzJmaZ6k4P0mrJQv3KPw96vCZmK4cKes37CgrVm0r131hXfncV/0RqeGY12xwZAvt/oItR2uNPIvpDbR67PKZPWFcrWPUKDo+aseSqK4nvphnNHa056WORrhXHrOd3nz7OA9o4xxS6RI+lZGYEZLT0uTaAx91PuOI2eWtl+xTDj24fijAkG14t4pDLS8BG/Gp2UM4E+99cHN56JEthWfm42u3l/UYojkEb+MlFAn2wBDOx6CROXuUhfOmlsULp5V99pxWDtwHQz62vIxwhOF2j/pswnTlp/dsLv/8gdXlh3dsQW6pbAW+Y7hL4XqXG6emJDCGnWiTjmOMgjzUZEIt//sFdkZHz9sJpuOiP9t0APqZ2J6FLmvDs5aJFB4YPIgRN3BEkslEd+Pt2UFMwp556sLyhgv2KnNwrY3l0ce2llt/NFp+fOfGcue9mzHMbikPr9iKDt2OGAQxls4UbSXZVwbjPmRMPbd8RGJn749OP2T/6eWwg2eUZ+DM3nOxXRYOXTaj/MXvLcVz8Zqy/D/W66xVOAqR3K0QWY8n7cwWTbBETfsRAYboD4jdDRr26wUtnIBRh2PtEFqEJxzG4ZLgrNauDOMsURwEnp+pSDgLBvkZTx0pF523NDt51Zqt5cqPPVZu/ua6sgZnK89kJFQoN3vwvSQuwcFl73bsiaCHWBtz5ggdz0+WeNDc//DW8o1bRnVWz8dn6M87ZnZ5zVnzy6L5e5SR2VPxvDwfZ/eW8oOf8JrjOYP7QA3I5UnpbDYwsCfR2fX0YDFY7NyYHDozMMcwvceFk0ByJWKK81BXuDeUrp8GNlEvdbY8Cjp6dlmIu1gu38cZ/IY/uqt8/FOrNDTzWVzxzp1yclSEg4fed1sOyhX6wGEsOw2bDcjBkeITN6wtb/nTh9Cx9srPQnT4kYf5ZcTjONwvms/7BsYbBtYmBzPlwkpbN+ZuCG7UxlvksvC0Ml/zNNnUqVEbqLMzmiSjwi7bhgE8glo7djkcj9GbTx/H8MDwuDiD2UoekSQxvZRnHTmnHH/M3PKlm9eWH96OV2p4ggCMZ/Ys3GHHWcqOnQHW/MbHVNhyFIF78hS0jxbU74SDcqkT/Jzv2gsw5GGp+Tw9HfcKo3qjlSMHP2eOMwyccK9w2klzykueP6fc8qNN5ds/3FS+96PNmiyZwlGGjX2yzuzBOgJe1Qy9t4EpuaijLb81SNpwkkrWWkQ6QPVkdPYeOOpPet788qqX71kO2HdmmYfhcc8luP796F7Ulj3NXMxfl2OeOVL+7m0HlWtvWFWu+9zqsubx7ZjHFVFzik7qOMK0K52N2PaSEQc/X6RfgLdYX/bCueXMU+bltdoT8hBgQQpHpBf9ykg57KDp5dBl09HpIxgJtpVrPreu/MfXNurdMLr+rDubPPMabfmxbgvMI1kqWa3oad+9zmb38YbqGU8bKRdfsE858og6XUhCz33OXD1CbeJ1N3KpOrTa9ZfPy298zV56lfim/1xbvvy1deWOezbpkzG+rcFZNd0Ng3Y9IBG8C53Ns3QGJl5m40zlHfchuPE66biRcsJzRsocXJfHX3ZgggZDExrISRjGzkU75y6bWv7w4kXlFadvKVdcsxZn+ha9NqQRAs5GSUQVC8YkzZ/mDI36Wxt2/VoPfz9RuqFbcHFGsEUuP6HOJnF2mIGjI+eXs1+6pJxw3Hw94jANl5WrtpavfWtt+c9b1iW5yO8VkN9GHAAz0RGE5AHzkpMX6Hfd+m3lPj5S4dFqxcqtZRWmUTnjxXex+MjFRyveZPGLb1ymYiidhrvrmdPRqehAdgrPWs5oLcXdNR+1eNdNfbuwFsTitTgXr9P9eJz7039YUY46YmZ5zpEzy/HPnFX2WmIlXoYJnf/x5sXllts2lU99aUO56VsbNdRrBPHaeO8CForJdjbJ8KgZE2cs84yOolpOrONseqKdrfx4nWbetPKWS/cvJ5+wQEO0pS8YereWj35yRbn+C6sxDclHIzJg1+qQ9k43HfXLMWTf/tON5bwzFpenHlY/BpyL5+GnYf9ph9HLrpdbt/JVWp7d1sFsCn+5sHn8ZYfzLObUKF9Lntr3qzn7+vY7NpWPX/94OfyQmeXc0+Z3NgLzcsOp1Bu/MVq+fgveB1u+tpx0LN74PH0eZuz4BYZSjnn6zPLUQ2aUFxy3qbzj3x4vK/Ccv+tnKMkDRBuOCc2I0OjHdDai/Iy2+P+KzuZNyCHLZpU/+p1l5SjccHFhsdnBN35tTXnvVQ+XR3FHW/+gNHuAbUEzbPyyhimyFJ65139xTfnsjWvKUw6aVV544vxy3LPmaMKDXxDgfPYMnKnsQH6aNINgk1h4Q8WhnzNbnOdeiY745q2j5UtfX49n9S2q8X6YRx+6sGE6QRhfyqMrt5Wrb8BM2s2j5ZUvm1tOwfV7IUaNkVlTcADMwogxrfzD+1aX2+/egpvLptOi3cw25gxVL1tNcAaP6WwRG4iDzs9oM6gmTlZwSRyeoYdhV5+z2eZfe/7C8uZL9i/74oMGLnyh/4tfWV0+tnxF+e7316tDLK91sFrgDfVmKK6u2HH8jvWU8hNMlHCy5N1XTSl74QMMfpix55LpZQnmuxcumFbmz52K4X0PXfNnYqjlWcsDgAi8hvNs5wjCy8F6DPFrMdSvxivKj+EysgKdxLnuRzApw1w8G9WHWlU26nkVy3VRJ3YB4ujOFy0u+9DjmDodLWedMqe86IQRHYyH7D+tvO13F5f34dp9/VdGNWv3X3HNJjN1tPHE2gucnQqHYY8v1hZvXXcwEELHmA6GF79wSfndNx6gojMZC/q3/3RvufGra3TDksOkUjdnMKvnXPTeOIMHF8+rkRbyIxgV+KsF1eXjGB+FOHXKoVkdzE5mL/MX+IRAX+u6zU+z+I0JXcNp1wIBP/z+lAVCyaBmYXu70Yc250Y98zAnMe7AiPAvV60pX/3OxvKHlywsC/CUwenXN5w/Xx2//AsbdAAyXVxvxdVxrCSGKTuN7tud2V47GSljyaG7B4ElyTIn0FShRi+VsqQvAY0TZrOOmFt+5w37q5MZfs99G8uf/81d5Uc/GdXZAUD5toR1kAySlBvz+EKwWCAPexwid56x23C2TuG3H4I740IGrp3b1MnAleS8ZHiBZW9zqbrmHuJ4ne0FsRzA2AQ+X8P1+/f/akX5729YVA7H9OoIvr3xunPmlQc4E/f9TYAEM5UWq4F69P0kp6zjuHGg6rceBDT/RoBIINe7bArXa2Ny+NK+954zyh//wcFl0UK7lv30zg3lL95+Z7n9JxuiZolthQoM5oLsuxIkqyeUugLYLvNW95QSX5oh3C2N+5uTAUIezgFmz+VRTsD03Onjen1ScIHTq//7XavK939ss2yzcd3+vd9cgLn1aUjjbQpemVDkvL0mM6sWbcaLi452J8ZYWApqHIHMxawG7J5mkMo6eweG6wPLQQfae8x8W+RP/vIOnckC8YZ2eB0Gc0EhnWfOKgURbtNBcu4N6B1hjD/1lsYjtanyWA6KMByeVoNLtgsYDiOX5APE0LtwHz7r/qvLVpZ7Ma/OhR+LvvmVCzTzRxC5xypijbSngDLsBHC5qsIeHU0nLWaQowOaOjUAM7nTS2X6Y581vzzn6Hkyb8anSP/r7XeU+x7AUTssLnJy22BYaigM0odWOZfFeEzhnbWWAcxwHzfXgL9hME1GQuUyNsM6m7kXL2iewbpQ2+njCBlOAlXa0K1cvb389TtX62aQhsMxq/bco3GSKORJ6mzgdkO3M1CSoBztDmKW36zy90Zww4n852EiZC6embn/xZtWle/9YJ0VjM7Z4CqbyvG0qXIWzFWEOPVXF5VLX7N3OegA/o0PQOJxKBeA5d6wXHQcomdQn8tRXG95Slm23/Ry8fmLyiknzs2UegIZgpl44ek+nd51d9+/BY9gG3B3X3S9Pu4ZM3VzZo3xNomSCDmiyVJbA9g4s2nTxjU3Y7r6T3jhJw4QcDNDnGE3aCN4lHn6U+foZmvD6Lby5ZtX44UAm4qKu/HAEKPAE6xQjavdiUi2OOPPNd/9Ov/MJXh+XlD+8zvryic+s7L88MejusfS/Dgwx7tBm4i7aoW8ukGzBoKq3Zk/9dAZ5axTF5Tjjh6xiQ8+a/lCVy3ellZmqeuNHSzRXktm94XQ8ZUj3qCd8ryRMhdvzBxxMN6cwQ0an+e92ETa7Rs0cqqPV964ie/yWrJjO5ufMu23j12b12Ni4/Yf8294+ELOWUjsxN1vNF4qkcjGwUmyH5sCojsflfbCvPLLTl2k34ce2Vy+8vW15ZvfW1/uvm+Tno1ZJD6z85GJd+CcCNGjWnOgcjKHWHzbRDNjnBLF0MwpVp69xxw1p5xw7Bw8n/cTJE7ZGgY+zhoCpMF2sYvyBEJI+jAQ7eMxAx0/116Pt2TmYk5pnz3x7M9ph/BVAh02u9XZJJoTJmOOGFp5ZvGoFp+e2LCzg59GzcFUJBe++rpqNd/0Q1w2nnDKNKA3H7mybPTHxlvFIGFy9Z1b12nW6thnzc2/Z7bPXjPKuTjL+csOfuRRvEK0aktZ/fg2zaRxMoQTI1vQ8epwVJfP1tMxz82O5UsE8/hKEea5+UoRJ1/Y2YMLn7W/hVkyzrw968g6/co2TjyKDO9sHcBoG5tLruTHhXym4uCzRYXIeozpJ7nBZ0w/NXEAyudoFrUD8bNpUp0NbBaSC8mz47VMprMZG/7iypVhEusWzKZxbnz/fWaU009ZXE49eSHm0SMRpjzRCQfsN0O/9G8XwnIRLLZx/Ek5wYrTrp//6rrymS+u1Zsn5750Yd/RjN3NziYbXiJ4fxN84t5DPOvKiQ/0E0+CnXU26PkZTaL4HdbZUMs45oihGkFgZ6E4Y3gW40yaj5sxzjvvu/dMzGmvhyOYROcl3ARntiKEarwY4wuH37WYUrxt3SiuzfeXf3zXA+WZfGnh2XPL0dhyCnQGztIZOFv5IQV/c2ZMBfG6AI+UeGBqOlTDvLWBZz8/TfvubaO4HGzQli8VDv2MnDSdKgHVKubp2gsH1QnW7JjWxz7ijKcJnt287AgPcRxYlYRHgnJNtrOzoxW9GyCVLBE2bNha7r53tBy0bDY+oZpWjj5qXvnRj/nyXOBjS7JcIO50GFcL3d+isOaBZQUjFDvqO99bV76N6zMPAubl9Xsx5rt5wPFlBn42zF/rdAQpzubd+X2oDRt3lPXrtvmL/FsLXzrUl+GQgPdd7GBssEQ7tGMrcVRjhEsfP4Qhtu01Obg7oHyIf+RhM3D5sMvFPQ/iCwT+Fkt2ttI7HjZjTso8gGAcPCnh3g3dYjpZEFbAG7Qed9q33Lq2nPi8RXqB/UUvWFw+87kVZTU+ftzVD0LYnsAzWBJqFu6qLfXsYIerI9ArvNu/+97tuilTFI2+qMNy10ai1kcm92cHR2dk13ltQq/YpCdSFgPik7lmz8FfRDj5+Nm6X+CVj++k8XJRCQzBcy46qFxmBxs342K7NI55jjalDlwdmfCQioHyN0XupqDOYcfcdPMqfOzICWa81Pf0ueXsM/bUBwy0JYjtUCEVC2myb6U3uYuj3saxGpchEFxOvAbHRH7qBTf9unPjI03HzX3oX8ENgHFYLMZk7XmIzsRUh5IBJgsPIo+rXz12BJMkdnO3Gp9n34wPPfThygCXRAm9FM7M5aAZXCJGY4XtYB3OJOhyVbk9FL4bgGoTCNx992j58NUPaperSy48oJz1sqV4jIFnxNIQZCUTRcYBvel4s5JLh+FxHsq9ClPlPldmGp5LfBKw+gjO9I1VtKLTjKMcXdxJLtTg5ONHypsvWGj+WN9w0/pyG15wyPKkACPkmtslbVzvcnWCwt3sopD7IbhVmwEQUnI9t+aZgo7Qq699uHz6s/Ynp3hdfPMlB5azX/YEzuw4i5Fa10xyiBYodc0vvZGCR6Mfr2AD+kQeoreU9qctRSGcJ+DQdU6DyQvHC/Eiwm9fuEj3D4T69g82lvdfu8ahwd7bUQWYoJS6rrwUA/qINe9+CtRsWO8MxKlEUfs4PkNvL//3X+4q3/nu4+I4FzdI/+23Di7nnY1vWuB51RpgUX0jiDhcHylPxFujhx1ifxPEiToNxHmoKxQivNBn5ZqC0WtAL9UQPSdWDsUX+k44tk6B0k2L0g/nQPxMAYHvm52KV4J//+Ilhe+G03YHvmnyt+9aaX8ctzrXNqUO2SCrSVyF3hWpp4d2jJ4eQPdf9rq32a5dzG2gNDlvCKT0u0+X602J+UpNJX74Qt4Pb19fDn3KSNkHj1ks0q8cv7AceMCs8tDDm8qKFd1XDe1iZSQUH/e5HCKOwYck/OWyZNH0cuLx88uC+dNUlBUrN/v3qYKDbQ2qyvloRENzg0YZXrYM6FUrFIvcn37YrHLWSxaU11+wtByI5/RYbvnBhnLLD/mnHR1FKWteb4y7TylPOXBGufi8ReXCcxbpMZCGO/Ftzb9/z8pyzwP2KZY7J08xDJIDHEOdbZKi76effPNv/qy56yY8jwIMKuJpst38QMGjA0PoLt3lGUC5A59D/88/u7384VsPKaecvET8X/D8xeXoZ8wr11z3SHnfVQ+UrXj2VifwyIxGKLUyIS8T98ueS2eUV5+7dznjxUvKgzhobrx5TbkJU6B33YObGPhzpNcL894e9gEfvbJgXS60KTobenpx4Rshy/DByYnHzcO753P1mhK/lpNvxbSUSFGXF6uTHhu9BiocZL4T93K8UHj+SxfoLVPd1SPsu7dtLH992Qq9XyYY5jcK1nZw0/lLDOon4C4H56LWJq94vGoKEsSMJzwlGAW6TbazOYHyF3/903L//RvL2WfurWfbxTgrL7lw/3L6i5aWd1x+b/n2d9fqESzmopHFaVjnqIZSlsI5dBZtZDanLO3dsKcfMae88bVFb5H+8PYN5cd3jOIRa1N54KFNeh7mZIf+Lw/7fAVIVjTOc7PjeMbOmYN3zvB6Lz8VO/yQWeXph8/WdKinzQ2/KcI74vbLfjJmUWtn46VkPccfiS/oXfrKJeUQnM2x8N3vz391ffnXD63S++jSe6eON6niZ+DkOxvgzRkdncqUJk+qsxnGHkFQH4f3oDfi5bj33IuXAdeW88/ZtxyPd7tZ5P3w7Yy3/fFh5Qe3rcNZuarc/PU15ad3+jCoo5dwPJ5ZRVuuu/4xfP9qfXn+8xZoOOdMWCyL0PEc1vkbC2eY+GzNPwy/GfJ2viSGhfn5ZXW+NDgHBw1vGida+MLgdzD9+pVvrscwjld4z1iU7jYOeAeDK0eoA/edUZ777JFy4nPmlKOeZn8WMgJuvX1juQavDX/lWxs0m1hHMnCboLN36cxWrYxLnJTMq45m023kgWS9BI3JfafJU6YAyTiONwE0pLNZ4JvwseWt+Hz6pBMWlTdfuqwswRfZeUYddeRcfbz5G+fsgzdR1pe/+ts7y2q8ZqshzFOSLJf1GzDv/KVV+LRqjc5ons0n/cqCcuyz5+n6bV51zQ7kDFmxS3w17ILE98y/hSnQr3xjLSYxNmI6d5vuPZbt13w/m/zwywNyOuZaj3nG7PLSF83Xd7n5am97AK3Dn55638dWli98bb3e/2an6vAaGI4n6mwm4+MmQiEisQSTdQlSvbQSL+vYOKMZjJTZaU+ks1VAtXzMmU1ifJ/7uk8/Wr5w48pywW/sW0570Z5lKaYsOTfNjj/i0DllDQpsi8pghF0TO/rCO/5EAr/s/vkbV+uA2R8jxBGHjpRDMfQuw00fP9Xii/0cmnlAtTNjrBF/Y657Aw4gYt2Lt2F+evcmvUZ8P775ofetnUZb1KQTArCWLt6j/MGb9s5vZ9DEEYV/l+XL31hXPnDNKnxKFd/dhhEEVPchncZcsmZfmL9xsPraiQB5WGcjWnpsuHRD95PS2UnMyNiuyS0xnpnvfM99ZTk6/cTnLionPHdhefaz5pVPfOoRFX/MDZrxRXFQFfZQ0zj6UsVXlvj7uRtVOUTwJX78ARt87Gdz3fhWJjqdS77XjSGd1934hghxCR0HBctNHC2elxTqwrYZnwce3lJuw1uuey2Zp1ebb/3RRny/ekO5+dvry316L8zPRGI2dVLdCTjQLhIZr7M7/UBce3OpxgDaOlpJsMIp/bPsbNbvIdwwXf3Jh8v1n1+hx7CHH7XpU7SahKzx5OcLh0gtA42LBqmT5IBY/PCM4gv0j+NDC5Q5+0wCdrlQn3fTrmP+8TogXSzc1uQDnGtvWIPXdreUL+BjTX4PbB0O6JzZI/emg1NG7LDOiY7vOpXZvO3UE4NtDh3NlDs8qPyMRgC9xVWwT3wYH2iQ7TYNTbJIDZmT+D+5w99I4ZEsSiJkjVALgqZ3gWPIFHhdHCx2PVLbhj32sO+9xZZhALMrmCoKSOcyuOH5x2v6N7+L15p5qQjPXeAwpnM8V3SgOGZNkTl5jq2peMGe3KEAnVhYVCzaELbKtuMK4lLkujqlXFVuD4Xv1jhCyOgwJhu067Wxu2a+3cHlSNx8Lcb74nxc0hJb7gQeTaF3DPNldig8VILLerQLfcQ6ZqrxiQjv7J92uL0uRU4b+KeYB/zVRwjyKnq+SOT6AG35AKeqU0r8nnttI/VJIQWzB4o6Wjt1lcSqCpJ21HLJtht6N2rjZF1mhMWar3mabLbUwM/kTg8V79TXrrMbtOOOmV/+7i8PLyccv4DNk+vQOFoCT27hSzqQfVdCmhp9xDoOXZ6H726//U8OLMc+074syM+sv4+/zqDwAX+GWZoEN0Wrd1PLgZyrOiW4mNxzJ2T4wJJiCNWeQ7dOc9mx4iFJGUPOk3LNjiFMLccAB3gOcy4YWeS0lJ5fBTGZz99XX/uI7tL5AuJhmFZ9+58fXr6P5++PL3+kfA/Pt/zzUryp4lsuanHgGWq2h5ktNVqWQyFjRAom0/MZm9+b5pf0jnr6SDkHf6uUX9rX2Qpu/B4Z/xegW2/jMD0+98zV1mAnHMhfdQelaAvLEXJwrJBRs9qO8FUcVs3NGMLRCmKnE+KetM4eKOpkOpt3wJe//368+bG5vPr8ffXoxIIfhc+7+fs4Htl+gomWu/H9rgce3NS8HIibIdyEcRaKf6pRr+ew8mwlfqaj9TNn4museIWYj2GcaeNc+p543Nt/n5maJTv04Fl4Dq/vpLE8996/qXz4k4/hT2us6W6ErFxYx9HAU4wyNnl/QIBduWYjSJ1N/8Bp5PE6u9M3cWBRynHPvYEcbQExKbkXhKVwvcuNE/z0wwAX5JRyhFS7wJvdiKs5LcZx5M47Y/z9Lzwbn3Ha0sLJlXjjlOZYeN3k3xnjmc1ffREeOk5b8pmZ+1ziK7QxBcqJDX77Mt4MjcewwOWWj4QfXf5Y+ffPr8FBh+80c0o1akQHl4dxp9nK420yJ6lTn82FEPKw/hCWOahXwrfREyCoXf+eA0087vjrcfA03sPAZf75d7ZVxua6X3zKkvISvAnKd8k5980/H9nORIXv7mx5QHBShqPBgw9vLp/90mp8+f5x7atUw2rUFNrK1ddUPKDyKnpnuk/oM0QKo77TXI1vx8H0fUc3DkZooFNlt5W4xEpbNxoudkJwozbj44U7h9HN+CybI04ceBbqOErTyNxHMOfMDz5oNl7xnYVO55fhZ+DlwOllAYZiDsn2l33xrjRGhHbhGc6JEs6K8XmXs3Yr8fc+H125BR+l4i8RYmbsLnwh4IGHNqtz9FcZ1MuOMk4H8JrN1467vzfOkIgFjZ9VZzPTDe89sP2jryDSjOmU8watuaY8addsELDLpS5gZRZufH77jcv0mu3lV94HK/QojPp8gFcULOr2ICZdeNbhD2bojOZsGH85FE/D34SKKVC+FM8hm4t9e4OfakHG2ctvdPAazuFe3/LQEK8eUTqLQuAAl8H7GpovOneJPvm67P2P4sMUjO9BNGLho2t2WwOX81quhHJkXynvYC62I/h01+ZGDwe5+c1YD9gSy872wnvlscExSQyuJrzRkpPlg28Xpxbgj7Lhu8GXXHRAOQ+fbMXy3g/chzYgdoLONnPgmy87ayt6jZ9Y1bMmuymLbrV3vTZVVpx2gTlwNx5FH1MjlgK/F71iabnkVXuqGXwKsP9SeSedLe9oB1OiSgM1jbyqHxPFQcPYrFMbV/V0ybvu7ogYABlzJIlT32k7tk8pb3zDwZ5zSvnXd9+lD++tULURgyPC/LnTy5tev6yce3btZL6TzQ85eFNVG8FjCjgDZ4epAr+1I5QFY4V2GodK8ICVr8cNKbS3mHUbg8kazcAnpov9T1nShf9tBOfZ3/2hFbr7H+TOkyY7lZD497pXLKEarlPK+z6yUjNstFgdidqwGNYu2OtBQneiRUd7ACEIqFoOgOyss3n2vf7ig4mp5bJ33ll2YJjU4KuiiT55qqjsgtl4Jn4TPq4864x9PKqU9191X+HQrSGPhW+OXgvF+ufZ2WhnnvEDNdqEr4Ffhv8LhGdy/LcR/L84ubzjyp0P44R77Xn2f4sw5j0feazsMeSAY+eN6Q8GOB8dChlHQzsFSict2KYYAgwEd484Skzh+owPJ8YEVAiOgA3vkC/9TZzJGK55p8wh9+pPPFjefcW9+qqteUac5Sey9G0ul21jUcnPA5L5TuMyg3Nv8tfGQPI8cm9k6OO/jXhi/6UygbEo/XAOQ/tDMcZHHBtqzVw3gatT1iQFs9dYl7Tpms50WGjAr/2kzBx8EeCtv3VIufCCA+io5drlD5XL3nVP2YjHmQgSdAWAOjUpKzj0MptP+JqdiMP0jsdNtFOq8PU43+VehalyxjIZcHhG785/qZzgIu0rpWlyNRyYCxZbgj/3XG472zo6vasTk2ZsCmaXe10N5dcwkN1S8L9KwN/peMNB5awzm+H6g/fh9eA78XGivwUZ2NhGXOJlI1quVTazRdUG0M6fYfrMAIewwz99Pc5N0qcbhNBHLEOh3J3/xK2DcJzYtJ3WciDnoJD8RcG0YfUPNRrCjdMgoJK6XTBcBbvYphNtsWP4M9HJr7/4QAzX+9Xh+poHy7ved4/OAvPPIAOw0JSF6Lnk2eYNvRkseWcnJcfv9KZr1x0XGMYrdKdvMREx6WHcqRlxa3IWcQIO6uyIbTk0cg7dHWFmcqdO3wQKPBi1+k4nduI6H+9hv/UtT8FwvSw8yrXLHyzveOddGK75hTJl8nZ5nDxNtnY0+uTHULOau3tq4/rOnpl2IY6IgeFxvit9mlI5BnNSw3jkUkN8JehMZFXKdBAauYopJR8fus3QdaraWPVZqxRYA+8c+Tox3yjSVxquX39wOfvX6yPU+z94T/nHf8Jw/Xg/XLdxbSMoy1aFbITFmFXpnaNtXN/xJtYwven6uKZxMPc1ksJTVrk78BAxqWHc62cb42NUqzweh74/3N/x8owOcj0IvLJA4zQEdoPsgYlPzSxMa77+4oPKeefun8P1xz7+AN4Xw43XxngJ0GO1cTyXHdzQoDPPFJKfuZuVuYN332mtnVi+n20cL06AXIlAXyNgBEwI8mtyQb9Lw3gbwlSCTnBLLmznnv5ypEVBVZ1S+4aJOcmXhKuPZaSZ/0KfQo1jbC6w8+76d3/n0HLRhXW4/sS1D2C4vlPDtUFFLgfWxrvAZXFpZPPE2oSGH7IP4WUqd+7s1iZx7vSegZvQSxUYHue73AsuE72pstNhPECyiMzvuahTPk8aet91R4sE56o2qRu65eUNk2t6M0nsDO/sNFsqfGiPu+s3HVLOOWs/15Ry5fs5XN9RHl/D4Rp49pOyFPRWqoHObvRj4xhj/CzUZIak3jFbnclM5/5tI4bhdRgel6kgBEwlmPmVC/qJh3HODjVL8BF0gsOhyn0/ydEAEOte2s8pUBVkcMYJrmOm02zaDLn6WatM7jwvveTgcv659pzMyZBrcCa/63LceG3ijVc0iMQwdyYok9upSMqahyLjmKIU/rA4GFgY8DN3k83d9drImr4Vzme8HKOLw46jWjODC6ByClNNkkLNE/MxNSJqHcY5PXoG/oQWJ4zOPm2RPkFT3nYVfCJXWzvKoY9cphAH1oOt4qIzmlhaUsCeyzouwk6nYfo2TkClvO61B7tU0Mn3l3dcdgceodDJwsIqMU223dC7URsx2MW4ll+VRSR4O2arM5kpIq9vaRgaJ4PCGNLXSArZEk/uPeawYfw1/r/tGnCzjvq2uQTnmK3eM0dTvHDxoQYpaQbXGraLZ7Y1MObGG2KN+N4r7irvxpk8ykcox9UxZgeaHXnuz89x9bexdXSyEXbEjjmzB45e22Vr4U9cFua/4swWbM8rOA6e2foTUkbGm01ujOVi8mp8/v3P73tY/+/Ha861/1LZ7L72dmgvZEDUD2sIVfkMcsh6wK0buic1UR6JdUirus6u3/DMbs/u3trvves9d5d34qCY6IMQa5daq3qh2ergX7TOvuSCvcvrXrV338BJ7rEL46BVaNRcTY5LDSw762y4+M2YYAQqcO4SNBaX+yGq+sQQxb908ESWuGO1zGwN0ZyHy1UFiTuh8F0ppKPNBHMJZaM3AxRVZzJR3H9YHWgKfYfhcdCFWXi7seJ9TbJowUJmjuTIBCKiTd9PpvfnaEUZHQB5CIJSSrkHIX71effld+INjd3vbBvZjYuhmiz22RbnJwfzMsLmaxqT1SDnJ33DNXibyqJCZ3HMOkxvug7PdhTGEMbF1c+Uk1uzk6/8KP6zdA/rclEX7fBcchvCIejTLqxjjv6k3LQb6DAl2RQYYQ75mayymD7ymwp+w7CoDH1iWby+2OaHXnAx14jxQG38nsLlxHR888TaBGxTk7J4hl5md3ad2QkxTO94XRwj3BeS6tFheYzc3G8gPuoaX/Kj6864M2XEyT84uP5zVx1m74yp55WQh4is8NdxaSFkHIRdljV96c6jWCB90ogjA8jmYTJVpnA9rzWJaXJ/7YWOAdo4P5cnjkNY8gbCsPYA54n90bvKyxvl37+KNmLLxQvQliV0YTcXbyuVO+HOeuSNGP0HrtlU2eOVPLnLhVEmMUGISubqkGVNB4baDvUupk6hw/AU4nlcbpI2dGAMO8EmHdfyqzKhgqxxFnDqzM50w/Sm6+MEqDCGKM5DuVdhqhz5LVdmgm8GpizNEH3myvQe65u8GRuPEJNluiEJ+jhkSR9ERWDqzB7q9JXC87icsdYC34Ux7E2DqirsbszdFJKfxWhN56o3Q6czO1O7/0B7anjYpXEMj8tUENItlZnfcmWmMfpEHsKBuBkp6IqfV8R0SpuinGyGj5O48RUTA2FU8kkBDpAzTUhSuN7lMJG+/zBYP75KOULSHopwzzjLL5payZESQk22jes73kQfpm/iwl+q8PU4302OSgll6CPWuYQ6eFEdsmwD/mb3XPLNVXyo4ZDYqCE1Q0eiqlNqEitYuSxh+AAxxRDgAaX26spzDegzBIL9MDh9LRfXA3Gmkj7dqwB3A9Y6CdLd9WYgSupMzkwD+iF4HYbHmRtB9SP4Ro78lsvbJKcMzLwGP1ZvcK73TT2jaRXg+ITUOYE7rDgt4Y4cgsaJk5qrwHNF6jtMaO2HAY4pz5S1V1dkgcV8zdNkU6cGLiZ3eqlc39mJOExvunZtbuHrcb4bvIwhlKHvcmUm2MOBTTJZ6yF6YjWRzYSJRaid6WRYRNVPGKs6pSZx69sSavQDxBIl9FI4TZdJIfJXOlCGnUaXqyrsbszdFBrejFcknVM2les7O9MN05uujxOgYBmiOA/lXsKE0ORXEMCqe0qIM1nrjpv7YBOR9a47uQw4+W5LiAmqOqUmMXSNuhJCXOhTQOJhePLzPC5XTCjsh8GeS04pay9Wbgpf28U69M5FuwO8VBYzUERMBFHmj+93etOZKuwK5qrGuckVZmJQ6AcwQ91zMK3WA/6Ri9v+rpsai6A0IaGhnaOYSIytiYKq5Br9ALF0D70Uv4Sd3RYuauG1HVOjrubYGfC34kdHy5n94jBeYDlBlr5mqB0I0KpOKZP1cZUE9cknBbNXFJe08TwuN0nFxTyxDru3h4qqcnsofLcBgCijx5hsNXC9Nq7veGemxBgTF/4dhsc5JPcsOWGqHLwCs7qnxAAzcx25GtnPaA/AxktDgRFcaSO977rCbRkBdTqk3McRK3xgSTEEs2uvrpSOq6qCpB1SMNl2Q+9GbQbiPGR4nOWvLo4jhcnGOfBbezKE0Oo9rsFoGuI04JMhVe5qN4BZ3VPKvNK0/shd77rDoDxNcDAIfZqkIH0liPDhjWx83V9x3kmSE8Dx5Gey2U2h9LHS1h0zRQhu1GZIZwdouA/hYqGOozQmG1XXd7zZX8P0Hhc5nXL2LsxdpzZcOn2XKzOp/oJuOTYyxdrRraFNLI5G1PLLSG8svexe4yRufRlq3pNqiEK8gS6Tgi0Q7Ifg+vFVynKNlbaMNF/bNVl4yY8u6ZyyqVzf2Yk4TG+6Ps7z+6arRbahwZNfzyX3Og6eq/Hvh+7GYHkcRpsqj0eIBXGvLAgho1B9XK9PnimYfQyec/ENnfQDIWWLCb3tGTHnJ1XYx4sjnMWau8n0Tr0ZpAqd2UnJ/QfaU8PDLo1jeFymghBuxAn9AGaoew6mDZs6WjsDwWMJ7xohJgvw4YlhTQdgZt5Gnzqzp3vopZhMpznCpOMqPwt1HJXCZKPk+uAnO5s5TD8szgPaOA9VsQIm8Jr8FHdWc7rk0C2sjmiiN4SFypXnh4+7tYR2llgFyDhi2Q71SSEFs1d3l7TxUro8yMU8sQ6786aiqtweCt8dbE8NlSN3K++IbXRmz0zpa3rDUBOjnR2Gx2UqCC7v7t14N3RbrkSv5JQnMqk14svkKlmGSOE2L6bc0yEx+zg4RYOJGO4pmF3qumJyGmIj2XZMT1kuKdieKQfiPEQRY+IInUgpMyT1Mge+b2Un4jC96bSOdtqOYI0yFObGRCkLL/QRq1yZCb7hYHD/D8eVdxfqYsjTAAAAAElFTkSuQmCC;" vertex="1" parent="1">
          <mxGeometry x="120" y="160" width="81.33" height="80" as="geometry" />
        </mxCell>
      </root>
    </mxGraphModel>
  </diagram>
</mxfile>
